<svg xmlns="http://www.w3.org/2000/svg" viewBox="0 0 16 16" width="16" height="16"><title>bell</title><g class="nc-icon-wrapper" stroke-width="1" fill="#707070" stroke="#707070"><path fill="none" stroke="#707070" stroke-linecap="round" stroke-linejoin="round" stroke-miterlimit="10" d="M12.5,5.296V5 c0-2.485-2.015-4.5-4.5-4.5h0C5.515,0.5,3.5,2.515,3.5,5l0,0.296c0,1.423-0.757,2.746-1.992,3.454C0.867,9.118,0.5,9.544,0.5,10 c0,1.381,3.358,2.5,7.5,2.5s7.5-1.119,7.5-2.5c0-0.456-0.367-0.882-1.008-1.25C13.257,8.043,12.5,6.719,12.5,5.296z" data-cap="butt"/> <path fill="none" stroke-linecap="round" stroke-linejoin="round" stroke-miterlimit="10" d="M10.292,14 C9.906,14.883,9.025,15.5,8,15.5c-1.025,0-1.905-0.617-2.292-1.499" data-cap="butt" data-color="color-2"/> </g></svg>